<?xml version="1.0" standalone="no"?>
<!DOCTYPE svg PUBLIC "-//W3C//DTD SVG 20010904//EN"
 "http://www.w3.org/TR/2001/REC-SVG-20010904/DTD/svg10.dtd">
<svg version="1.0" xmlns="http://www.w3.org/2000/svg"
 width="512.000000pt" height="512.000000pt" viewBox="0 0 512.000000 512.000000"
 preserveAspectRatio="xMidYMid meet">
<metadata>
Created by potrace 1.16, written by Peter Selinger 2001-2019
</metadata>
<g transform="translate(0.000000,512.000000) scale(0.100000,-0.100000)"
fill="#000000" stroke="none">
<path d="M1543 4149 c-53 -26 -89 -91 -79 -144 l7 -35 43 45 43 45 669 2 c368
1 641 3 606 5 l-63 4 5 34 c4 24 2 35 -7 36 -6 1 4 5 23 9 19 4 -238 8 -572 9
-333 0 -612 3 -620 6 -7 3 -32 -4 -55 -16z"/>
<path d="M3721 3997 c0 -10 -7 -24 -13 -31 -11 -11 -15 -11 -26 3 -8 10 -7 4
3 -16 13 -28 15 -180 15 -1348 0 -1435 4 -1347 -56 -1394 -27 -21 -28 -21
-1033 -21 -996 0 -1006 0 -1040 21 -22 13 -40 37 -54 70 -25 58 -42 65 -32 12
9 -54 35 -94 75 -118 35 -20 47 -20 1058 -20 l1022 0 2 -80 2 -80 5 65 c7 67
26 120 58 155 10 12 20 27 23 35 9 27 10 2583 1 2675 -4 50 -9 82 -10 72z"/>
<path d="M1764 3856 c-76 -65 13 -187 94 -130 52 36 48 110 -9 139 -38 20 -53
19 -85 -9z m96 -16 c24 -24 26 -67 3 -92 -20 -22 -70 -23 -95 -1 -40 36 -8
113 47 113 14 0 34 -9 45 -20z"/>
<path d="M1966 3794 c-4 -15 -3 -31 2 -36 4 -4 190 -7 413 -6 l404 3 0 30 0
30 -406 3 -407 2 -6 -26z"/>
<path d="M1760 3665 c0 -13 12 -15 73 -13 39 2 72 8 72 13 0 6 -33 11 -72 13
-61 2 -73 0 -73 -13z"/>
<path d="M1970 3650 l0 -31 103 3 c101 3 102 3 102 28 0 25 -1 25 -102 28
l-103 3 0 -31z"/>
<path d="M2458 3442 c-461 -1 -708 -6 -708 -12 0 -7 274 -10 791 -10 537 0
790 3 787 10 -4 14 -66 15 -870 12z"/>
<path d="M1410 2205 c0 -984 2 -1170 14 -1193 20 -39 65 -77 106 -91 19 -6 47
-23 62 -38 l27 -26 158 7 c87 3 223 9 303 12 80 3 154 7 165 9 11 2 48 4 83 4
39 1 61 5 57 11 -4 7 189 10 571 10 l578 0 33 23 c18 12 35 28 38 35 3 9 -2 8
-17 -3 -20 -13 -136 -15 -1023 -15 -974 0 -1001 1 -1032 20 -18 10 -40 31 -50
47 -17 26 -18 86 -18 1190 l0 1163 -27 0 -28 0 0 -1165z"/>
<path d="M1749 3034 c-23 -27 13 -44 95 -44 82 0 107 10 90 37 -16 26 -164 32
-185 7z"/>
<path d="M2020 3031 c-5 -11 -10 -22 -10 -25 0 -3 84 -6 186 -6 l185 0 -3 23
c-3 22 -5 22 -175 25 -162 2 -173 1 -183 -17z"/>
<path d="M2054 2820 c0 -63 1 -89 3 -57 2 31 2 83 0 115 -2 31 -3 5 -3 -58z"/>
<path d="M1780 2845 c0 -3 7 -17 16 -31 15 -23 15 -26 0 -43 -9 -9 -16 -21
-16 -24 0 -12 23 -7 40 8 15 14 18 14 30 0 7 -8 16 -15 21 -15 15 0 10 27 -6
40 -14 12 -13 15 5 35 11 12 20 24 20 28 0 14 -31 7 -36 -8 -4 -8 -12 -15 -19
-15 -7 0 -18 7 -25 15 -12 15 -30 20 -30 10z"/>
<path d="M2110 2840 c0 -7 183 -10 530 -10 347 0 530 3 530 10 0 7 -183 10
-530 10 -347 0 -530 -3 -530 -10z"/>
<path d="M2105 2770 c-4 -7 175 -10 529 -10 351 0 536 3 536 10 0 7 -183 10
-529 10 -343 0 -532 -4 -536 -10z"/>
<path d="M2110 2660 c0 -7 185 -10 535 -10 350 0 535 3 535 10 0 7 -185 10
-535 10 -350 0 -535 -3 -535 -10z"/>
<path d="M2106 2601 c-9 -13 102 -21 313 -21 317 0 751 13 751 22 0 11 -1057
11 -1064 -1z"/>
<path d="M1784 2492 c-49 -32 -32 -105 25 -110 60 -6 90 46 55 96 -15 22 -57
30 -80 14z m70 -34 c16 -26 -4 -53 -40 -53 -23 0 -30 5 -32 23 -2 13 -1 30 2
38 8 20 56 14 70 -8z"/>
<path d="M2110 2430 c0 -7 183 -10 530 -10 347 0 530 3 530 10 0 7 -183 10
-530 10 -347 0 -530 -3 -530 -10z"/>
<path d="M2100 2371 c0 -13 409 -24 760 -20 239 3 310 7 310 17 0 9 -114 12
-535 12 -305 0 -535 -4 -535 -9z"/>
<path d="M1760 2185 l0 -55 55 0 55 0 0 55 0 55 -55 0 -55 0 0 -55z m68 39
c34 -10 26 -24 -13 -24 -24 0 -35 5 -35 15 0 16 12 18 48 9z m20 -61 c-2 -12
-14 -19 -36 -21 -27 -3 -32 0 -32 17 0 17 6 21 36 21 28 0 35 -3 32 -17z"/>
<path d="M2053 2185 c0 -33 2 -45 4 -27 2 18 2 45 0 60 -2 15 -4 0 -4 -33z"/>
<path d="M2100 2210 c0 -7 185 -10 535 -10 350 0 535 3 535 10 0 7 -185 10
-535 10 -350 0 -535 -3 -535 -10z"/>
<path d="M2104 2151 c-17 -17 73 -21 537 -21 420 0 530 3 526 13 -3 9 -118 12
-531 12 -290 0 -529 -2 -532 -4z"/>
<path d="M2051 2024 c0 -11 3 -14 6 -6 3 7 2 16 -1 19 -3 4 -6 -2 -5 -13z"/>
<path d="M2080 2022 c-5 -2 -8 -8 -4 -13 8 -13 247 -12 242 1 -3 10 -214 20
-238 12z"/>
<path d="M1760 1928 l0 -58 55 0 55 0 0 54 0 54 -55 4 -55 3 0 -57z m68 36
c36 -10 27 -34 -13 -34 -28 0 -35 4 -35 20 0 21 10 24 48 14z m22 -69 c0 -10
-11 -15 -35 -15 -24 0 -35 5 -35 15 0 10 11 15 35 15 24 0 35 -5 35 -15z"/>
<path d="M2105 1920 c4 -6 53 -10 116 -10 66 0 109 4 109 10 0 6 -45 10 -116
10 -74 0 -113 -4 -109 -10z"/>
<path d="M2100 1871 c0 -5 7 -12 16 -15 9 -3 252 -6 541 -6 415 0 524 3 521
13 -4 9 -123 13 -541 15 -314 1 -537 -2 -537 -7z"/>
<path d="M2110 1750 c0 -7 185 -10 535 -10 350 0 535 3 535 10 0 7 -185 10
-535 10 -350 0 -535 -3 -535 -10z"/>
<path d="M1782 1723 c-21 -4 -23 -9 -20 -51 l3 -47 52 -5 c42 -4 51 -3 51 10
0 8 3 25 7 37 5 15 1 27 -14 42 -21 21 -33 23 -79 14z m66 -41 c4 -25 -6 -28
-33 -9 -10 8 -15 19 -11 26 12 19 41 8 44 -17z m-49 -29 c10 -19 9 -22 -4 -17
-8 4 -15 15 -15 27 0 23 2 22 19 -10z"/>
<path d="M1471 1644 c0 -11 3 -14 6 -6 3 7 2 16 -1 19 -3 4 -6 -2 -5 -13z"/>
<path d="M2110 1620 c0 -7 181 -10 524 -10 339 0 527 4 531 10 4 7 -173 10
-524 10 -347 0 -531 -3 -531 -10z"/>
<path d="M2053 1565 c0 -33 2 -45 4 -27 2 18 2 45 0 60 -2 15 -4 0 -4 -33z"/>
<path d="M1474 1500 c0 -58 1 -81 3 -52 2 28 2 76 0 105 -2 28 -3 5 -3 -53z"/>
<path d="M2107 1594 c-4 -4 -4 -11 -1 -15 3 -5 246 -9 540 -9 424 0 535 3 532
13 -4 9 -121 13 -535 15 -291 1 -532 -1 -536 -4z"/>
<path d="M1750 1420 c0 -6 35 -10 85 -10 50 0 85 4 85 10 0 6 -35 10 -85 10
-50 0 -85 -4 -85 -10z"/>
<path d="M2327 1413 c161 -2 425 -2 585 0 161 1 30 2 -292 2 -322 0 -453 -1
-293 -2z"/>
</g>
</svg>